<svg width="22" height="22" viewBox="0 0 22 22" fill="none" xmlns="http://www.w3.org/2000/svg">
<path d="M21.3523 3.68485C20.0189 3.0943 18.6845 2.86963 17.3508 2.86963C13.1169 2.86927 8.88329 5.13236 4.64939 5.13236C3.58756 5.13236 2.52642 4.99008 1.4646 4.63437C1.34532 4.59444 1.22569 4.57557 1.10882 4.57557C0.517236 4.57557 0.000244141 5.05904 0.000244141 5.73016V17.2456C0.000244141 17.704 0.248772 18.1385 0.647859 18.3149C1.98124 18.9058 3.31566 19.1305 4.64939 19.1305C8.88329 19.1305 13.1172 16.8674 17.3511 16.8674C18.4129 16.8674 19.4741 17.0097 20.5359 17.3654C20.6552 17.4053 20.7748 17.4242 20.8917 17.4242C21.4833 17.4242 22.0002 16.9407 22.0002 16.2696V4.75451C21.9999 4.29572 21.7514 3.86161 21.3523 3.68485V3.68485ZM1.65022 6.50727C2.34183 6.69021 3.0637 6.78204 3.80618 6.8314C3.60406 7.89816 2.71583 8.70213 1.65022 8.70213V6.50727ZM1.65022 16.8518V15.1175C2.83167 15.1175 3.78762 16.1074 3.84022 17.3462C3.06576 17.2805 2.34183 17.1171 1.65022 16.8518V16.8518ZM11.0001 14.4845C9.48106 14.4845 8.25011 12.9241 8.25011 11.0001C8.25011 9.07562 9.48141 7.51559 11.0001 7.51559C12.5187 7.51559 13.75 9.07562 13.75 11.0001C13.75 12.9249 12.5184 14.4845 11.0001 14.4845ZM20.3499 15.4929C19.7477 15.3335 19.1224 15.2442 18.4827 15.1865C18.6845 14.2399 19.428 13.5212 20.3499 13.3978V15.4929ZM20.3499 6.92287C19.2881 6.78095 18.4641 5.84486 18.4315 4.68881C19.1032 4.76758 19.7408 4.91494 20.3499 5.14833V6.92287Z" fill="#0065FC"/>
</svg>
